<svg width="1440" height="5833" viewBox="0 0 1440 5833" fill="none" xmlns="http://www.w3.org/2000/svg">
<g clip-path="url(#clip0_113_717)">
<rect width="1440" height="5833" fill="white"/>
<g filter="url(#filter0_f_113_717)">
<path fill-rule="evenodd" clip-rule="evenodd" d="M77.8832 -18.9827C233.967 -15.6199 421.22 -121.287 528.274 -7.65314C635.358 106.011 535.92 288.287 512.869 442.738C495.042 562.193 485.293 680.696 411.298 776.153C325.579 886.737 216.74 986.713 77.8832 1003.9C-76.1732 1022.96 -257.479 995.193 -349.713 870.334C-437.793 751.098 -329.62 590.812 -336.651 442.738C-344.433 278.84 -501.959 94.6072 -392.342 -27.4876C-283.468 -148.755 -85.0492 -22.493 77.8832 -18.9827Z" fill="#FF8A00"/>
</g>
<g filter="url(#filter1_f_113_717)">
<path fill-rule="evenodd" clip-rule="evenodd" d="M1542.88 195.017C1698.97 198.38 1886.22 92.7127 1993.27 206.347C2100.36 320.011 2000.92 502.287 1977.87 656.738C1960.04 776.193 1950.29 894.696 1876.3 990.153C1790.58 1100.74 1681.74 1200.71 1542.88 1217.9C1388.83 1236.96 1207.52 1209.19 1115.29 1084.33C1027.21 965.098 1135.38 804.812 1128.35 656.738C1120.57 492.84 963.041 308.607 1072.66 186.512C1181.53 65.2451 1379.95 191.507 1542.88 195.017Z" fill="#FF8A00"/>
</g>
<g filter="url(#filter2_f_113_717)">
<path fill-rule="evenodd" clip-rule="evenodd" d="M1099.88 2258.02C1255.97 2261.38 1443.22 2155.71 1550.27 2269.35C1657.36 2383.01 1557.92 2565.29 1534.87 2719.74C1517.04 2839.19 1507.29 2957.7 1433.3 3053.15C1347.58 3163.74 1238.74 3263.71 1099.88 3280.9C945.827 3299.96 764.521 3272.19 672.287 3147.33C584.207 3028.1 692.38 2867.81 685.349 2719.74C677.567 2555.84 520.041 2371.61 629.658 2249.51C738.532 2128.25 936.951 2254.51 1099.88 2258.02Z" fill="#FF8A00"/>
</g>
<g filter="url(#filter3_f_113_717)">
<path fill-rule="evenodd" clip-rule="evenodd" d="M380.883 4493.02C536.967 4496.38 724.22 4390.71 831.274 4504.35C938.358 4618.01 838.92 4800.29 815.869 4954.74C798.042 5074.19 788.293 5192.7 714.298 5288.15C628.579 5398.74 519.74 5498.71 380.883 5515.9C226.827 5534.96 45.5214 5507.19 -46.7129 5382.33C-134.793 5263.1 -26.6198 5102.81 -33.6505 4954.74C-41.4326 4790.84 -198.959 4606.61 -89.3424 4484.51C19.5315 4363.25 217.951 4489.51 380.883 4493.02Z" fill="#FF8A00"/>
</g>
<g filter="url(#filter4_f_113_717)">
<path fill-rule="evenodd" clip-rule="evenodd" d="M159.169 1149.76C296.13 1141.64 431.123 1199.27 526.249 1298.14C619.72 1395.29 680.763 1532.87 655.123 1665.22C632.012 1784.52 481.366 1816.96 407.108 1913.16C308.441 2040.97 316.951 2273.38 159.169 2307.68C2.27431 2341.79 -124.839 2175.17 -226.518 2050.91C-316.56 1940.87 -378.418 1806.91 -366.54 1665.22C-355.473 1533.2 -261.452 1431.95 -166.856 1339.19C-73.5595 1247.72 28.7361 1157.48 159.169 1149.76Z" fill="#00B2FF"/>
</g>
<g filter="url(#filter5_f_113_717)">
<path fill-rule="evenodd" clip-rule="evenodd" d="M1310.31 4588.61C1179.59 4630.29 1034.55 4607.78 917.959 4535.46C803.395 4464.4 710.273 4346.15 702.439 4211.56C695.378 4090.24 833.35 4021.61 881.557 3910.06C945.611 3761.84 879.979 3538.73 1024.41 3466.53C1168.02 3394.74 1332.34 3524.82 1461.55 3620.13C1575.98 3704.53 1669 3819.07 1692.47 3959.3C1714.34 4089.97 1648.23 4211.3 1579.47 4324.54C1511.65 4436.22 1434.8 4548.92 1310.31 4588.61Z" fill="#00B2FF"/>
</g>
<g filter="url(#filter6_f_113_717)">
<path fill-rule="evenodd" clip-rule="evenodd" d="M399.311 6943.61C268.594 6985.29 123.552 6962.78 6.95898 6890.46C-107.605 6819.4 -200.727 6701.15 -208.561 6566.56C-215.622 6445.24 -77.6503 6376.61 -29.4428 6265.06C34.6107 6116.84 -31.0212 5893.73 113.406 5821.53C257.022 5749.74 421.341 5879.82 550.553 5975.13C664.977 6059.53 757.996 6174.07 781.47 6314.3C803.343 6444.97 737.233 6566.3 668.468 6679.54C600.647 6791.22 523.798 6903.92 399.311 6943.61Z" fill="#00B2FF"/>
</g>
<g filter="url(#filter7_f_113_717)">
<path fill-rule="evenodd" clip-rule="evenodd" d="M1601.26 1290.31C1735.8 1293.12 1890.59 1129.95 1984.33 1226.5C2078.47 1323.46 1942.88 1478.2 1911.23 1609.58C1891.24 1692.53 1878.24 1770.01 1835.58 1843.91C1769.28 1958.76 1730.84 2118.29 1601.26 2146.49C1464.7 2176.21 1326.87 2080.94 1236.57 1974.27C1152.47 1874.94 1152.65 1739.6 1146.74 1609.58C1140.38 1469.99 1087.45 1290.43 1201.79 1210.11C1317.32 1128.96 1460.1 1287.35 1601.26 1290.31Z" fill="#841E95"/>
</g>
<g filter="url(#filter8_f_113_717)">
<path fill-rule="evenodd" clip-rule="evenodd" d="M182.258 3570.31C316.802 3573.12 471.594 3409.95 565.335 3506.5C659.47 3603.46 523.883 3758.2 492.23 3889.58C472.244 3972.53 459.245 4050.01 416.584 4123.91C350.277 4238.76 311.842 4398.29 182.258 4426.49C45.6987 4456.21 -92.1348 4360.94 -182.434 4254.27C-266.526 4154.94 -266.346 4019.6 -272.263 3889.58C-278.615 3749.99 -331.551 3570.43 -217.209 3490.11C-101.678 3408.96 41.1031 3567.35 182.258 3570.31Z" fill="#841E95"/>
</g>
<g filter="url(#filter9_f_113_717)">
<path fill-rule="evenodd" clip-rule="evenodd" d="M1394.26 5223.31C1528.8 5226.12 1683.59 5062.95 1777.33 5159.5C1871.47 5256.46 1735.88 5411.2 1704.23 5542.58C1684.24 5625.53 1671.24 5703.01 1628.58 5776.91C1562.28 5891.76 1523.84 6051.29 1394.26 6079.49C1257.7 6109.21 1119.87 6013.94 1029.57 5907.27C945.474 5807.94 945.654 5672.6 939.737 5542.58C933.385 5402.99 880.449 5223.43 994.791 5143.11C1110.32 5061.96 1253.1 5220.35 1394.26 5223.31Z" fill="#841E95"/>
</g>
</g>
<defs>
<filter id="filter0_f_113_717" x="-1093.54" y="-742.544" width="2333.09" height="2414.44" filterUnits="userSpaceOnUse" color-interpolation-filters="sRGB">
<feFlood flood-opacity="0" result="BackgroundImageFix"/>
<feBlend mode="normal" in="SourceGraphic" in2="BackgroundImageFix" result="shape"/>
<feGaussianBlur stdDeviation="331.272" result="effect1_foregroundBlur_113_717"/>
</filter>
<filter id="filter1_f_113_717" x="371.456" y="-528.544" width="2333.09" height="2414.44" filterUnits="userSpaceOnUse" color-interpolation-filters="sRGB">
<feFlood flood-opacity="0" result="BackgroundImageFix"/>
<feBlend mode="normal" in="SourceGraphic" in2="BackgroundImageFix" result="shape"/>
<feGaussianBlur stdDeviation="331.272" result="effect1_foregroundBlur_113_717"/>
</filter>
<filter id="filter2_f_113_717" x="-71.5443" y="1534.46" width="2333.09" height="2414.44" filterUnits="userSpaceOnUse" color-interpolation-filters="sRGB">
<feFlood flood-opacity="0" result="BackgroundImageFix"/>
<feBlend mode="normal" in="SourceGraphic" in2="BackgroundImageFix" result="shape"/>
<feGaussianBlur stdDeviation="331.272" result="effect1_foregroundBlur_113_717"/>
</filter>
<filter id="filter3_f_113_717" x="-790.544" y="3769.46" width="2333.09" height="2414.44" filterUnits="userSpaceOnUse" color-interpolation-filters="sRGB">
<feFlood flood-opacity="0" result="BackgroundImageFix"/>
<feBlend mode="normal" in="SourceGraphic" in2="BackgroundImageFix" result="shape"/>
<feGaussianBlur stdDeviation="331.272" result="effect1_foregroundBlur_113_717"/>
</filter>
<filter id="filter4_f_113_717" x="-938.819" y="578.181" width="2170.64" height="2304.83" filterUnits="userSpaceOnUse" color-interpolation-filters="sRGB">
<feFlood flood-opacity="0" result="BackgroundImageFix"/>
<feBlend mode="normal" in="SourceGraphic" in2="BackgroundImageFix" result="shape"/>
<feGaussianBlur stdDeviation="285.41" result="effect1_foregroundBlur_113_717"/>
</filter>
<filter id="filter5_f_113_717" x="131.359" y="2874.97" width="2136.19" height="2305.28" filterUnits="userSpaceOnUse" color-interpolation-filters="sRGB">
<feFlood flood-opacity="0" result="BackgroundImageFix"/>
<feBlend mode="normal" in="SourceGraphic" in2="BackgroundImageFix" result="shape"/>
<feGaussianBlur stdDeviation="285.41" result="effect1_foregroundBlur_113_717"/>
</filter>
<filter id="filter6_f_113_717" x="-779.641" y="5229.97" width="2136.19" height="2305.28" filterUnits="userSpaceOnUse" color-interpolation-filters="sRGB">
<feFlood flood-opacity="0" result="BackgroundImageFix"/>
<feBlend mode="normal" in="SourceGraphic" in2="BackgroundImageFix" result="shape"/>
<feGaussianBlur stdDeviation="285.41" result="effect1_foregroundBlur_113_717"/>
</filter>
<filter id="filter7_f_113_717" x="718.318" y="776.318" width="1709.44" height="1786.36" filterUnits="userSpaceOnUse" color-interpolation-filters="sRGB">
<feFlood flood-opacity="0" result="BackgroundImageFix"/>
<feBlend mode="normal" in="SourceGraphic" in2="BackgroundImageFix" result="shape"/>
<feGaussianBlur stdDeviation="205.341" result="effect1_foregroundBlur_113_717"/>
</filter>
<filter id="filter8_f_113_717" x="-700.682" y="3056.32" width="1709.44" height="1786.36" filterUnits="userSpaceOnUse" color-interpolation-filters="sRGB">
<feFlood flood-opacity="0" result="BackgroundImageFix"/>
<feBlend mode="normal" in="SourceGraphic" in2="BackgroundImageFix" result="shape"/>
<feGaussianBlur stdDeviation="205.341" result="effect1_foregroundBlur_113_717"/>
</filter>
<filter id="filter9_f_113_717" x="511.318" y="4709.32" width="1709.44" height="1786.36" filterUnits="userSpaceOnUse" color-interpolation-filters="sRGB">
<feFlood flood-opacity="0" result="BackgroundImageFix"/>
<feBlend mode="normal" in="SourceGraphic" in2="BackgroundImageFix" result="shape"/>
<feGaussianBlur stdDeviation="205.341" result="effect1_foregroundBlur_113_717"/>
</filter>
<clipPath id="clip0_113_717">
<rect width="1440" height="5833" fill="white"/>
</clipPath>
</defs>
</svg>
