<svg width="152" height="70" viewBox="0 0 152 70" fill="none" xmlns="http://www.w3.org/2000/svg">
<path d="M71.8693 53.7889C71.8693 54.3977 71.661 54.9265 71.2444 55.3751C70.8278 55.7917 70.2991 56 69.6582 56H68.3604C67.7515 56 67.2228 55.7917 66.7741 55.3751C66.3575 54.9265 66.1493 54.3977 66.1493 53.7889V39.3205C66.1493 39.1923 66.0852 39.1122 65.957 39.0802C65.8608 39.0481 65.7807 39.0802 65.7166 39.1763L61.1021 48.6937C61.006 48.9501 60.7977 49.1744 60.4773 49.3667C60.1568 49.5589 59.8524 49.7191 59.564 49.8473C59.3076 49.9435 59.1794 49.9915 59.1794 49.9915C58.186 49.9915 57.5291 49.5589 57.2087 48.6937L52.5942 39.1763C52.5621 39.0802 52.482 39.0481 52.3538 39.0802C52.2256 39.1122 52.1615 39.1923 52.1615 39.3205V53.7889C52.1615 54.3977 51.9372 54.9265 51.4886 55.3751C51.072 55.7917 50.5593 56 49.9504 56H48.6045C47.9957 56 47.4669 55.7917 47.0183 55.3751C46.6017 54.9265 46.3934 54.3977 46.3934 53.7889V25.7173C46.3934 25.0764 46.6017 24.5477 47.0183 24.1311C47.4669 23.7145 47.9957 23.5062 48.6045 23.5062H49.9985C50.8958 23.5062 51.5527 23.9228 51.9693 24.756C52.1295 25.1085 52.4499 25.7974 52.9306 26.8229C53.4433 27.8163 54.0362 29.002 54.7091 30.3799C55.3821 31.7578 56.071 33.2159 56.776 34.7541C57.5131 36.2602 58.2181 37.7022 58.891 39.0802C58.9551 39.2083 59.0352 39.2724 59.1314 39.2724C59.2595 39.2724 59.3557 39.2083 59.4198 39.0802L66.2935 24.756C66.71 23.9228 67.383 23.5062 68.3123 23.5062H69.6582C70.2991 23.5062 70.8278 23.7145 71.2444 24.1311C71.661 24.5477 71.8693 25.0764 71.8693 25.7173V53.7889ZM81.5467 53.7889C81.5467 54.3977 81.3224 54.9265 80.8737 55.3751C80.4572 55.7917 79.9444 56 79.3356 56H78.0378C77.4289 56 76.9001 55.7917 76.4515 55.3751C76.0349 54.9265 75.8266 54.3977 75.8266 53.7889V25.7173C75.8266 25.0764 76.0349 24.5477 76.4515 24.1311C76.9001 23.7145 77.4289 23.5062 78.0378 23.5062H79.3356C79.9444 23.5062 80.4572 23.7145 80.8737 24.1311C81.3224 24.5477 81.5467 25.0764 81.5467 25.7173V53.7889ZM107.463 49.6551C107.463 50.8087 107.175 51.8662 106.598 52.8275C106.021 53.7889 105.252 54.558 104.291 55.1348C103.33 55.7116 102.272 56 101.119 56H91.8895C90.7359 56 89.6624 55.7116 88.669 55.1348C87.7076 54.558 86.9385 53.7889 86.3617 52.8275C85.7849 51.8662 85.4965 50.8087 85.4965 49.6551V48.213C85.4965 47.6042 85.7048 47.0914 86.1214 46.6749C86.57 46.2262 87.0988 46.0019 87.7076 46.0019H89.0535C89.6303 46.0019 90.127 46.2262 90.5436 46.6749C90.9923 47.0914 91.2166 47.6042 91.2166 48.213V49.6551C91.2166 49.8153 91.2807 49.9755 91.4088 50.1357C91.5691 50.2639 91.7293 50.328 91.8895 50.328H101.119C101.279 50.328 101.423 50.2639 101.551 50.1357C101.679 49.9755 101.743 49.8153 101.743 49.6551V45.2809C101.743 44.9284 101.583 44.7041 101.263 44.6079L89.7265 40.2819C88.4447 39.8332 87.4192 39.0481 86.6501 37.9265C85.8811 36.805 85.4965 35.5712 85.4965 34.2253V29.8992C85.4965 28.7135 85.7849 27.64 86.3617 26.6787C86.9385 25.7173 87.7076 24.9482 88.669 24.3714C89.6624 23.7946 90.7359 23.5062 91.8895 23.5062H101.119C102.272 23.5062 103.33 23.7946 104.291 24.3714C105.252 24.9482 106.021 25.7173 106.598 26.6787C107.175 27.64 107.463 28.7135 107.463 29.8992V31.197C107.463 31.8059 107.239 32.3186 106.791 32.7352C106.374 33.1518 105.861 33.3601 105.252 33.3601H103.955C103.346 33.3601 102.817 33.1518 102.368 32.7352C101.952 32.3186 101.743 31.8059 101.743 31.197V29.8992C101.743 29.4506 101.535 29.2263 101.119 29.2263H91.8895C91.7293 29.2263 91.5691 29.2904 91.4088 29.4185C91.2807 29.5467 91.2166 29.707 91.2166 29.8992V34.2253C91.2166 34.6099 91.3768 34.8502 91.6972 34.9463L103.282 39.2724C104.531 39.7211 105.541 40.5062 106.31 41.6277C107.079 42.7493 107.463 43.967 107.463 45.2809V49.6551Z" fill="#535353"/>
<path d="M24.3421 43.1238L3.67766 60.9217C2.23474 62.1632 0 61.1396 0 59.236V23.6401C0 21.7392 2.23474 20.7129 3.67766 21.9544L24.3421 39.7523C25.374 40.6407 25.374 42.2354 24.3421 43.1238Z" fill="#27BDFF"/>
<path d="M11.2757 43.1238L31.943 60.9217C33.3859 62.1632 35.6179 61.1396 35.6179 59.236V23.6401C35.6179 21.7392 33.3859 20.7129 31.943 21.9544L11.2757 39.7523C10.2466 40.6407 10.2466 42.2354 11.2757 43.1238Z" fill="#8D309D"/>
<path d="M17.4558 45.9324C16.8902 46.418 16.6474 47.116 16.6998 47.7947L31.943 60.9217C33.3859 62.1632 35.6179 61.1396 35.6179 59.236V30.2892L17.4558 45.9324Z" fill="url(#paint0_radial_155_724)"/>
<path d="M124.157 42.3979C124.157 42.6626 124.066 42.8925 123.885 43.0876C123.704 43.2687 123.474 43.3592 123.196 43.3592H121.001C120.82 43.3592 120.729 43.4498 120.729 43.6309V54.0386C120.729 54.3034 120.632 54.5333 120.437 54.7283C120.256 54.9094 120.033 55 119.768 55H119.225C118.96 55 118.73 54.9094 118.535 54.7283C118.354 54.5333 118.263 54.3034 118.263 54.0386V43.6309C118.263 43.4498 118.173 43.3592 117.992 43.3592H115.776C115.512 43.3592 115.282 43.2687 115.087 43.0876C114.906 42.8925 114.815 42.6626 114.815 42.3979V41.8336C114.815 41.555 114.906 41.3251 115.087 41.144C115.282 40.9628 115.512 40.8723 115.776 40.8723H123.196C123.474 40.8723 123.704 40.9628 123.885 41.144C124.066 41.3251 124.157 41.555 124.157 41.8336V42.3979ZM132.361 48.793C132.361 49.211 132.257 49.6011 132.048 49.9633C131.839 50.3117 131.56 50.5973 131.212 50.8202C130.863 51.0292 130.473 51.1337 130.041 51.1337H127.575C127.506 51.1337 127.436 51.1615 127.366 51.2173C127.31 51.2591 127.283 51.3148 127.283 51.3845V52.2622C127.283 52.3319 127.31 52.3946 127.366 52.4503C127.436 52.5061 127.506 52.5339 127.575 52.5339H130.041C130.306 52.5339 130.529 52.6245 130.71 52.8056C130.905 52.9867 131.003 53.2166 131.003 53.4953V54.0386C131.003 54.3034 130.905 54.5333 130.71 54.7283C130.529 54.9094 130.306 55 130.041 55H127.136C126.495 55 125.945 54.7771 125.485 54.3312C125.026 53.8715 124.796 53.3141 124.796 52.6593V46.515C124.796 46.0831 124.9 45.693 125.109 45.3447C125.332 44.9963 125.618 44.7177 125.966 44.5087C126.314 44.2858 126.704 44.1743 127.136 44.1743H130.041C130.473 44.1743 130.863 44.2858 131.212 44.5087C131.56 44.7177 131.839 44.9963 132.048 45.3447C132.257 45.693 132.361 46.0831 132.361 46.515V48.793ZM129.895 48.375V46.9539C129.895 46.8703 129.86 46.8006 129.791 46.7449C129.735 46.6892 129.672 46.6613 129.602 46.6613H127.575C127.506 46.6613 127.436 46.6892 127.366 46.7449C127.31 46.8006 127.283 46.8703 127.283 46.9539V48.375C127.283 48.4307 127.31 48.4865 127.366 48.5422C127.436 48.5979 127.506 48.6258 127.575 48.6258H129.602C129.672 48.6258 129.735 48.5979 129.791 48.5422C129.86 48.4865 129.895 48.4307 129.895 48.375ZM141.627 52.6593C141.627 53.3141 141.397 53.8715 140.937 54.3312C140.491 54.7771 139.948 55 139.307 55H136.402C135.761 55 135.211 54.7771 134.751 54.3312C134.291 53.8715 134.061 53.3141 134.061 52.6593V46.515C134.061 46.0831 134.166 45.693 134.375 45.3447C134.598 44.9824 134.883 44.6968 135.232 44.4878C135.58 44.2788 135.97 44.1743 136.402 44.1743H139.307C139.739 44.1743 140.129 44.2788 140.477 44.4878C140.826 44.6968 141.104 44.9824 141.313 45.3447C141.522 45.693 141.627 46.0831 141.627 46.515V47.6017C141.627 47.8665 141.536 48.0964 141.355 48.2914C141.174 48.4725 140.951 48.5631 140.686 48.5631H140.101C139.837 48.5631 139.614 48.4725 139.432 48.2914C139.251 48.0964 139.161 47.8665 139.161 47.6017V46.9539C139.161 46.8703 139.126 46.8006 139.056 46.7449C139.001 46.6892 138.938 46.6613 138.868 46.6613H136.841C136.771 46.6613 136.702 46.6892 136.632 46.7449C136.576 46.8006 136.548 46.8703 136.548 46.9539V52.2622C136.548 52.3319 136.576 52.3946 136.632 52.4503C136.702 52.5061 136.771 52.5339 136.841 52.5339H138.868C138.938 52.5339 139.001 52.5061 139.056 52.4503C139.126 52.3946 139.161 52.3319 139.161 52.2622V51.6144C139.161 51.3496 139.251 51.1267 139.432 50.9456C139.614 50.7505 139.837 50.653 140.101 50.653H140.686C140.951 50.653 141.174 50.7505 141.355 50.9456C141.536 51.1267 141.627 51.3496 141.627 51.6144V52.6593ZM150.893 54.0386C150.893 54.3034 150.802 54.5333 150.621 54.7283C150.44 54.9094 150.217 55 149.952 55H149.367C149.102 55 148.879 54.9094 148.698 54.7283C148.517 54.5333 148.427 54.3034 148.427 54.0386V46.9539C148.427 46.8703 148.392 46.8006 148.322 46.7449C148.266 46.6892 148.204 46.6613 148.134 46.6613H146.107C146.037 46.6613 145.967 46.6892 145.898 46.7449C145.842 46.8006 145.814 46.8703 145.814 46.9539V54.0386C145.814 54.3034 145.724 54.5333 145.542 54.7283C145.361 54.9094 145.138 55 144.874 55H144.289C144.024 55 143.794 54.9094 143.599 54.7283C143.418 54.5333 143.327 54.3034 143.327 54.0386V41.8336C143.327 41.555 143.418 41.3251 143.599 41.144C143.794 40.9628 144.024 40.8723 144.289 40.8723H144.874C145.138 40.8723 145.361 40.9628 145.542 41.144C145.724 41.3251 145.814 41.555 145.814 41.8336V43.9235C145.814 43.9932 145.842 44.0559 145.898 44.1116C145.967 44.1534 146.037 44.1743 146.107 44.1743H148.573C149.005 44.1743 149.395 44.2788 149.743 44.4878C150.092 44.6968 150.37 44.9824 150.579 45.3447C150.788 45.693 150.893 46.0831 150.893 46.515V54.0386Z" fill="#504F4F"/>
<defs>
<radialGradient id="paint0_radial_155_724" cx="0" cy="0" r="1" gradientUnits="userSpaceOnUse" gradientTransform="translate(34.5 61) rotate(-106.39) scale(26.5801 16.1353)">
<stop stop-color="#FFA031"/>
<stop offset="1" stop-color="#F25D29"/>
</radialGradient>
</defs>
</svg>
