<svg width="227" height="207" viewBox="0 0 227 207" fill="none" xmlns="http://www.w3.org/2000/svg">
<path d="M185.087 86.1537C185.087 133.735 146.515 172.307 98.9338 172.307C51.3524 172.307 12.7803 133.735 12.7803 86.1537C12.7803 38.5723 51.3524 -9.15527e-05 98.9338 -9.15527e-05C146.515 -9.15527e-05 185.087 38.5723 185.087 86.1537Z" fill="#9EDED6"/>
<path d="M111.372 118.017C111.372 118.017 87.3565 147.161 78.8624 146.402C70.3683 145.642 64.5479 131.436 64.5479 131.436C64.5479 131.436 64.8391 131.281 65.3333 130.984C67.8196 129.518 75.4658 124.659 77.2551 119.473C78.9873 116.659 91.5853 96.233 95.4188 91.0211C99.5436 85.4191 104.397 85.2006 104.397 85.2006C107.133 89.6999 110.586 93.1225 114.867 93.7675C115.455 93.8554 116.027 93.9132 116.573 93.9392C116.833 95.7701 118.555 105.112 126.945 109.892C126.945 109.892 127.268 103.385 131.569 102.807C131.569 102.807 136.126 100.311 139.887 103.962C139.887 103.962 145.848 97.5641 139.887 79.5986L135.632 75.749L135.627 75.7443L133.677 71.1045C133.677 71.1045 155.444 70.0169 160.479 74.6832C165.515 79.3437 197.722 121.964 197.722 121.964L150.872 158.339C150.872 158.339 122.467 130.168 111.372 118.017Z" fill="white"/>
<path d="M139.887 79.5988C145.847 97.5643 139.887 103.962 139.887 103.962C136.126 100.311 131.569 102.807 131.569 102.807L137.645 80.5351L135.632 75.7491L139.887 79.5988Z" fill="#CFEEE3"/>
<path d="M125.27 98.6519L131.569 102.807C127.268 103.385 126.945 109.892 126.945 109.892C118.555 105.112 116.833 95.7702 116.573 93.9393C117.104 93.9648 117.619 93.9601 118.108 93.9289L125.27 98.6519Z" fill="#CFEEE3"/>
<path d="M111.226 117.783C108.606 114.549 105.985 111.314 103.364 108.08C103.154 107.82 102.787 108.189 102.996 108.447C105.617 111.682 108.238 114.917 110.859 118.15C111.069 118.41 111.435 118.041 111.226 117.783Z" fill="#252936"/>
<path d="M108.93 118.42C107.075 117.623 105.219 116.827 103.364 116.031C103.06 115.9 102.794 116.348 103.101 116.48C104.957 117.276 106.812 118.073 108.667 118.868C108.972 118.999 109.236 118.551 108.93 118.42Z" fill="#252936"/>
<path d="M150.342 133.256C147.984 129.353 145.625 125.451 143.266 121.55C140.918 117.666 138.57 113.782 136.222 109.899C134.892 107.698 133.562 105.498 132.231 103.297C132.059 103.011 131.609 103.272 131.782 103.56C134.141 107.462 136.5 111.363 138.859 115.266C141.206 119.148 143.554 123.032 145.902 126.916C147.232 129.117 148.563 131.317 149.893 133.517C150.066 133.804 150.517 133.543 150.342 133.256Z" fill="#252936"/>
<path d="M77.6349 117.554C77.6089 118.193 77.4789 118.834 77.2552 119.473C75.4659 124.659 67.8197 129.518 65.3333 130.984L64.5479 128.108C64.5479 128.108 60.5167 129.013 57.5675 126.459C57.4894 126.609 57.3646 126.745 57.219 126.839C56.8028 127.094 56.2775 127.094 55.7886 127.052C53.5779 126.854 51.4245 126.007 49.6716 124.638C48.6365 123.832 47.7054 122.787 47.4193 121.507C47.1436 120.295 47.6066 118.854 48.6833 118.261C48.6417 118.069 48.6157 117.871 48.6053 117.673C48.5584 116.545 49.1514 115.463 49.9577 114.672C50.7015 113.934 51.6221 113.408 52.5428 112.909C52.5532 112.862 52.5636 112.82 52.574 112.779C52.7977 111.978 53.3698 111.312 54.0356 110.818C54.639 110.37 55.3256 110.048 56.0122 109.736C52.678 108.02 49.4791 106.116 49.8016 105.262C50.4518 103.531 57.2814 104.145 64.189 106.563C71.0914 108.987 73.3489 112.597 73.3489 112.597C75.4971 111.645 77.8482 111.832 77.6349 117.554Z" fill="#F68164"/>
<path d="M75.1038 118.528C73.4945 119.219 71.8846 119.909 70.2752 120.6C69.4607 120.949 68.6456 121.299 67.831 121.648C67.1616 121.936 66.346 122.404 65.5944 122.172C64.785 121.921 64.7762 121.014 65.0862 120.365C65.3967 119.716 65.881 119.123 66.3294 118.565C67.2141 117.462 68.2144 116.452 69.3052 115.553C70.5712 114.51 71.9657 113.629 73.443 112.918C73.7446 112.772 73.4809 112.324 73.1803 112.469C70.3252 113.844 67.7889 115.871 65.8295 118.364C65.0649 119.336 63.6246 121.05 64.772 122.268C65.2958 122.823 66.1374 122.825 66.8178 122.615C67.662 122.354 68.4745 121.934 69.2859 121.586C71.3129 120.716 73.3395 119.846 75.3665 118.977C75.6729 118.845 75.4086 118.397 75.1038 118.528Z" fill="#252936"/>
<path d="M62.4157 113.335C60.3975 112.13 58.3793 110.925 56.3617 109.72C56.0735 109.548 55.8119 109.998 56.099 110.17L62.153 113.784C62.4412 113.956 62.7028 113.507 62.4157 113.335Z" fill="#252936"/>
<path d="M63.3572 123.079C63.302 122.587 63.0794 122.133 62.8906 121.681C62.6831 121.184 62.475 120.687 62.2675 120.19C61.3125 117.905 60.3575 115.619 59.4019 113.334C59.275 113.029 58.7715 113.163 58.9005 113.471C59.6729 115.32 60.4454 117.169 61.2178 119.017C61.6079 119.95 61.9985 120.885 62.3887 121.819C62.6258 122.386 63.3551 123.878 62.3028 124.118C61.5652 124.287 60.7044 123.55 60.1447 123.157C59.4982 122.702 58.8833 122.204 58.3008 121.67C57.144 120.608 56.1187 119.406 55.2563 118.094C54.2816 116.611 53.519 114.999 52.9952 113.303C52.8964 112.985 52.3945 113.121 52.4933 113.442C53.5071 116.723 55.402 119.715 57.933 122.037C58.5478 122.601 59.2001 123.126 59.8826 123.606C60.5296 124.062 61.3052 124.669 62.139 124.656C62.9894 124.643 63.4456 123.863 63.3572 123.079Z" fill="#252936"/>
<path d="M58.9863 123.352C58.7871 123.088 58.3351 123.347 58.5374 123.614C58.8896 124.08 58.9244 124.715 58.5114 125.159C58.102 125.6 57.4935 125.604 56.9697 125.373C56.4365 125.138 55.9705 124.741 55.5153 124.384C55.0415 124.012 54.5759 123.628 54.1198 123.235C52.3086 121.673 50.6436 119.947 49.1409 118.086C48.9302 117.826 48.5645 118.195 48.7731 118.453C50.1536 120.163 51.6709 121.759 53.3135 123.219C54.1135 123.93 54.9416 124.612 55.7988 125.253C56.552 125.817 57.5361 126.355 58.462 125.848C59.3619 125.356 59.6006 124.164 58.9863 123.352Z" fill="#252936"/>
<path d="M137.645 80.535L131.569 102.807L125.27 98.6519C131.751 89.4447 130.487 78.5111 130.487 78.5111C130.487 78.5111 129.478 93.2371 118.108 93.9289C117.619 93.9601 117.104 93.9648 116.573 93.9393C116.027 93.9128 115.455 93.8556 114.867 93.7677C110.586 93.1227 107.133 89.7001 104.397 85.2002C98.961 76.2646 96.3342 63.1042 95.6216 59.0626C102.025 58.2252 108.246 55.5365 114.321 53.1121C116.199 52.3631 118.181 51.6198 120.194 51.8429C122.253 52.0671 124.1 53.2941 125.484 54.8395C126.695 56.1971 127.6 57.7888 128.454 59.3955C128.693 57.9292 129.686 53.5287 133.015 54.7979C133.4 54.943 133.743 55.1776 134.04 55.4736C136.802 58.2621 135.788 66.9169 132.656 68.6807L133.676 71.1047L135.627 75.7444L135.632 75.7491L137.645 80.535Z" fill="#F68164"/>
<path d="M130.488 78.5111C130.488 78.5111 131.751 89.4447 125.27 98.6519L118.108 93.9289C129.478 93.2371 130.488 78.5111 130.488 78.5111Z" fill="#252936"/>
<path d="M122.435 34.8501C119.949 33.9549 117.161 34.5375 114.737 35.5882C112.313 36.6342 110.097 38.1218 107.663 39.1361C103.216 40.9769 98.0973 41.1382 93.5512 39.5731C91.8659 38.99 90.0246 38.1785 88.3861 38.876C87.1159 39.4165 86.4095 40.7486 86.2743 42.1468C86.2737 41.8326 86.2894 41.5195 86.3419 41.21C86.4829 40.3772 86.849 39.5829 87.5133 39.0409C88.2326 38.4542 89.197 38.2529 90.1057 38.2586C91.1783 38.2654 92.2201 38.5681 93.2459 38.85C94.2446 39.1247 95.2484 39.3535 96.2763 39.4909C100.265 40.0235 104.393 39.3447 107.993 37.5455C111.684 35.7005 115.06 32.6108 119.385 32.473C121.32 32.4116 123.182 33.0857 124.532 34.4907C125.896 35.9076 126.529 37.9018 126.266 39.8487C126.256 39.9158 126.237 39.9814 126.226 40.048C126.322 37.83 124.592 35.6319 122.435 34.8501ZM133.478 47.6089C133.171 45.6536 132.693 43.6193 131.387 42.1322C130.217 40.8043 128.195 40.0979 126.609 40.7517C127.064 39.0056 126.843 37.0961 125.947 35.519C125.022 33.8925 123.433 32.6639 121.622 32.1921C117.211 31.0436 113.183 33.9461 109.602 36.0646C107.687 37.197 105.689 38.1041 103.518 38.6175C101.403 39.1174 99.2078 39.2656 97.044 39.0591C95.9444 38.9541 94.8599 38.746 93.7931 38.4599C92.7283 38.1749 91.6662 37.8446 90.5614 37.7577C88.7263 37.6131 86.8558 38.308 86.1172 40.102C85.429 41.7733 85.7827 43.7239 86.4527 45.3405C86.9229 46.4765 87.5897 47.5241 88.409 48.4359C86.4095 48.2279 84.2956 49.2505 83.2938 51.006C82.1599 52.9925 82.5604 55.729 84.2145 57.3102C85.6449 58.6782 87.7151 59.1146 89.6865 59.2608C91.6838 59.4116 93.6604 59.3227 95.6214 59.0626C102.024 58.2252 108.245 55.5365 114.321 53.1121C116.199 52.3631 118.181 51.6198 120.194 51.8429C122.254 52.0671 124.1 53.2941 125.484 54.8395C126.696 56.1971 127.6 57.7888 128.454 59.3955C128.693 57.9292 129.687 53.5287 133.015 54.7979C133.4 54.943 133.743 55.1776 134.04 55.4736C134.076 52.8473 133.889 50.2096 133.478 47.6089Z" fill="#252936"/>
<path d="M122.535 78.6883C122.535 78.6883 125.426 83.9725 121.016 87.0414C116.605 90.116 113.494 85.7515 113.494 85.7515L122.535 78.6883Z" fill="white"/>
<path d="M107.497 69.1125L113.494 81.0448C113.494 81.0448 108.615 83.7907 107.497 82.1995C106.373 80.6079 107.497 69.1125 107.497 69.1125Z" fill="#F36254"/>
<path d="M105.289 71.8065C105.749 73.3638 105.245 74.8852 104.163 75.2051C103.081 75.5245 101.831 74.5211 101.372 72.9638C100.911 71.4065 101.416 69.885 102.497 69.5656C103.579 69.2458 104.829 70.2491 105.289 71.8065Z" fill="#252936"/>
<path d="M117.945 67.5369C118.405 69.0943 117.901 70.6157 116.819 70.9356C115.738 71.255 114.488 70.2516 114.028 68.6943C113.567 67.1369 114.072 65.6155 115.153 65.2961C116.235 64.9762 117.486 65.9796 117.945 67.5369Z" fill="#252936"/>
<path d="M102.659 65.5053C101.673 65.7404 100.721 66.1248 99.8357 66.6163C99.3592 66.8805 99.1949 67.6015 99.5012 68.0493C99.8331 68.5336 100.424 68.6667 100.934 68.3838C101.154 68.2621 101.379 68.1528 101.607 68.0473C102.138 67.8205 102.686 67.6348 103.248 67.5006C103.778 67.3742 104.127 66.7204 103.951 66.208C103.759 65.6514 103.227 65.3695 102.659 65.5053Z" fill="#252936"/>
<path d="M117.483 62.0066C117.265 61.8188 117.036 61.7517 116.752 61.7241C115.492 61.6024 114.177 61.798 113.006 62.277C112.743 62.3847 112.528 62.5194 112.387 62.7774C112.265 63.0021 112.219 63.3241 112.303 63.5696C112.472 64.0586 113.056 64.4929 113.596 64.2723C114.08 64.0742 114.583 63.9358 115.098 63.8432C115.659 63.7688 116.225 63.7506 116.789 63.8052C117.04 63.8292 117.364 63.6528 117.528 63.4776C117.7 63.295 117.827 62.9995 117.811 62.7457C117.793 62.4731 117.696 62.1902 117.483 62.0066Z" fill="#252936"/>
<path d="M126.469 32.0028C126.337 31.6965 125.889 31.9607 126.021 32.2655C126.987 34.5048 127.466 36.9302 127.441 39.3677C127.438 39.7026 127.958 39.7026 127.961 39.3677C127.987 36.833 127.474 34.3295 126.469 32.0028Z" fill="#252936"/>
<path d="M128.852 36.4882C128.63 37.4031 128.408 38.3175 128.186 39.232C128.108 39.5571 128.608 39.6959 128.687 39.3703C128.91 38.4559 129.131 37.5409 129.353 36.6265C129.432 36.3014 128.931 36.1625 128.852 36.4882Z" fill="#252936"/>
<path d="M125.316 190.54V193.864H78.9087L43.5332 174.633V171.643L79.5849 190.54H125.316Z" fill="#7E8182"/>
<path d="M125.316 190.54H79.5849L43.5332 171.643H89.2649L125.316 190.54Z" fill="#AAACAB"/>
<path d="M84.4247 189.087H78.793L74.3535 186.76H79.9847L84.4247 189.087Z" fill="#7E8182"/>
<path d="M78.4735 185.978H72.8418L68.4023 183.65H74.034L78.4735 185.978Z" fill="#7E8182"/>
<path d="M73.4379 182.99H67.8062L63.3667 180.663H68.9984L73.4379 182.99Z" fill="#7E8182"/>
<path d="M67.4862 179.881H61.8551L57.415 177.554H63.0467L67.4862 179.881Z" fill="#7E8182"/>
<path d="M91.2216 188.635H85.5894L81.1499 186.308H86.7816L91.2216 188.635Z" fill="#7E8182"/>
<path d="M86.1854 185.648H80.5543L76.1143 183.32H81.7459L86.1854 185.648Z" fill="#7E8182"/>
<path d="M80.2343 182.538H74.6026L70.1631 180.211H75.7942L80.2343 182.538Z" fill="#7E8182"/>
<path d="M92.4501 185.093H86.8189L82.3789 182.766H88.0106L92.4501 185.093Z" fill="#7E8182"/>
<path d="M87.4149 182.106H81.7832L77.3438 179.778H82.9754L87.4149 182.106Z" fill="#7E8182"/>
<path d="M81.4638 178.997H75.8321L71.3921 176.669H77.0243L81.4638 178.997Z" fill="#7E8182"/>
<path d="M113.196 189.368H107.564L103.125 187.041H108.756L113.196 189.368Z" fill="#7E8182"/>
<path d="M107.244 186.259H101.613L97.1729 183.932H102.805L107.244 186.259Z" fill="#7E8182"/>
<path d="M102.209 183.272H96.5767L92.1372 180.944H97.7689L102.209 183.272Z" fill="#7E8182"/>
<path d="M96.2572 180.162H90.6256L86.1855 177.835H91.8177L96.2572 180.162Z" fill="#7E8182"/>
<path d="M119.992 188.916H114.36L109.921 186.589H115.553L119.992 188.916Z" fill="#7E8182"/>
<path d="M114.956 185.928H109.325L104.886 183.602H110.517L114.956 185.928Z" fill="#7E8182"/>
<path d="M109.005 182.82H103.374L98.9341 180.492H104.566L109.005 182.82Z" fill="#7E8182"/>
<path d="M154.533 206.51H108.801L85.4512 194.246H131.183L154.533 206.51Z" fill="#CCDDD8"/>
<path d="M122.817 205.038H109.507L102.711 201.469H116.021L122.817 205.038Z" fill="#55C6C2"/>
<path d="M126.972 204.814C126.891 204.814 126.808 204.795 126.731 204.755L110.949 196.465C110.695 196.332 110.597 196.017 110.73 195.763C110.864 195.508 111.178 195.412 111.433 195.544L127.215 203.833C127.469 203.966 127.567 204.281 127.434 204.536C127.34 204.712 127.159 204.814 126.972 204.814Z" fill="#AAACAB"/>
<path d="M132.281 204.509C132.2 204.509 132.117 204.489 132.04 204.449L116.258 196.16C116.004 196.026 115.906 195.712 116.039 195.457C116.173 195.203 116.487 195.107 116.742 195.239L132.524 203.528C132.778 203.661 132.876 203.975 132.743 204.23C132.649 204.408 132.468 204.509 132.281 204.509Z" fill="#AAACAB"/>
<path d="M139.5 204.967C139.419 204.967 139.336 204.947 139.259 204.907L123.477 196.618C123.223 196.485 123.124 196.171 123.258 195.916C123.392 195.661 123.706 195.565 123.961 195.697L139.743 203.986C139.997 204.119 140.095 204.434 139.962 204.688C139.868 204.865 139.687 204.967 139.5 204.967Z" fill="#AAACAB"/>
<path d="M144.81 204.661C144.728 204.661 144.646 204.642 144.568 204.602L128.786 196.313C128.532 196.179 128.434 195.865 128.567 195.61C128.702 195.356 129.016 195.26 129.27 195.392L145.052 203.68C145.306 203.814 145.404 204.128 145.271 204.383C145.177 204.56 144.996 204.661 144.81 204.661Z" fill="#AAACAB"/>
<path d="M192.492 66.6572L201.393 62.0237C204.942 62.9537 208.796 62.9012 212.542 61.6638C222.883 58.2474 228.497 47.0949 225.08 36.7537C221.663 26.4126 210.511 20.7991 200.17 24.2155C189.834 27.6303 184.221 38.7828 187.638 49.124C188.625 52.1148 190.266 54.7145 192.343 56.8108L192.492 66.6572Z" fill="#9EDED6"/>
<path d="M211.915 56.6248V57.9158H202.13V54.2258L211.915 56.6248Z" fill="#7E8182"/>
<path d="M203.287 57.9157H210.802C210.802 57.9157 210.624 59.4705 207.02 59.4705C203.422 59.4705 203.287 57.9157 203.287 57.9157Z" fill="#AAACAB"/>
<path d="M211.915 53.1122V56.6248L202.13 54.2258V53.1122H202.831H211.435H211.915Z" fill="#AAACAB"/>
<path d="M218.672 37.6355C218.672 41.8872 216.373 45.6063 212.947 47.6073L211.435 53.1121H202.831L201.324 47.6073C197.897 45.6063 195.594 41.8872 195.594 37.6355C195.594 31.2626 200.762 26.0985 207.135 26.0985C213.508 26.0985 218.672 31.2626 218.672 37.6355Z" fill="#55C6C2"/>
<path d="M202.502 40.3116C202.459 40.0359 202.04 40.153 202.083 40.4266C202.728 44.5612 203.373 48.6964 204.017 52.8311C204.06 53.1068 204.478 52.9898 204.436 52.7157C203.791 48.581 203.146 44.4463 202.502 40.3116Z" fill="white"/>
<path d="M211.653 39.8914C210.958 44.2441 210.262 48.5967 209.566 52.9498C209.522 53.2229 209.941 53.341 209.985 53.0653C210.681 48.7122 211.376 44.3595 212.072 40.0069C212.115 39.7333 211.697 39.6158 211.653 39.8914Z" fill="white"/>
<path d="M208.429 42.4054C207.96 41.3692 207.808 40.1204 208.087 39.0109C208.15 38.7591 208.267 38.46 208.54 38.3773C208.806 38.2962 208.986 38.5235 209.082 38.742C209.28 39.1898 209.268 39.7562 209.23 40.2348C209.167 41.0275 208.9 41.8103 208.466 42.4803C208.454 42.4558 208.44 42.4309 208.429 42.4054ZM204.646 39.7869C204.686 39.5092 204.74 39.1768 204.96 38.9797C205.225 38.7409 205.524 38.8964 205.64 39.1934C205.747 39.4676 205.705 39.7994 205.697 40.0865C205.687 40.3919 205.675 40.6982 205.646 41.0025C205.589 41.5768 205.437 42.2197 205.136 42.7471C204.68 41.8415 204.502 40.7893 204.646 39.7869ZM212.828 43.0358C212.502 43.9357 211.492 44.5437 210.542 44.3617C209.739 44.2077 209.127 43.6126 208.708 42.9271C209.1 42.3638 209.377 41.7089 209.525 41.1029C209.683 40.4626 209.722 39.7947 209.63 39.1419C209.56 38.6447 209.327 38.0101 208.753 37.9326C208.082 37.8421 207.738 38.5172 207.629 39.0702C207.489 39.7838 207.491 40.5188 207.618 41.2345C207.715 41.7848 207.903 42.3539 208.176 42.8761C208.119 42.9469 208.062 43.0181 208.001 43.0852C207.628 43.4915 207.156 43.8691 206.583 43.9008C206.035 43.931 205.653 43.5887 205.373 43.1643C205.663 42.7471 205.864 42.254 205.967 41.7635C206.12 41.0421 206.184 40.2395 206.135 39.504C206.097 38.9318 205.701 38.2598 205.03 38.4527C204.34 38.6509 204.224 39.491 204.18 40.0954C204.128 40.7867 204.214 41.4946 204.425 42.1547C204.531 42.485 204.67 42.8324 204.849 43.1539C204.568 43.4795 204.202 43.7182 203.728 43.7973C202.421 44.0147 201.928 42.6764 201.674 41.66C201.606 41.389 201.187 41.5039 201.255 41.7755C201.537 42.9032 202.087 44.2582 203.463 44.253C204.126 44.2504 204.667 43.9591 205.082 43.5227C205.187 43.6662 205.303 43.7994 205.433 43.9149C205.934 44.3606 206.609 44.4407 207.226 44.1921C207.685 44.0069 208.084 43.6875 208.421 43.298C208.821 43.9076 209.36 44.4111 210.047 44.6712C211.328 45.1565 212.787 44.4189 213.246 43.1513C213.342 42.8881 212.922 42.7747 212.828 43.0358Z" fill="white"/>
<path d="M81.1797 69.5727L71.9205 71.0088C69.7644 73.6715 66.836 75.7636 63.3328 76.9042C53.6626 80.0527 43.2716 74.7664 40.1226 65.0963C36.9741 55.4267 42.2609 45.0351 51.9305 41.8861C61.5955 38.7397 71.987 44.026 75.1355 53.6956C76.0463 56.493 76.2502 59.3554 75.8466 62.0815L81.1797 69.5727Z" fill="white"/>
<path d="M72.2631 53.4875L55.0216 70.729L45.6479 61.3496L50.1925 56.8051L55.0216 61.6341L67.7128 48.9424L72.2631 53.4875Z" fill="#55C6C2"/>
<path d="M180.063 110.559L168.318 123.74L165.317 131.839L164.703 124.244L163.47 114.99L163.595 113.279L164.298 103.609C162.347 103.792 160.448 103.74 158.665 103.417C151.643 102.169 146.285 96.8064 145.614 85.2018C145.203 78.1325 146.076 72.8066 147.257 68.9679C148.989 63.3289 151.398 60.9108 151.398 60.9108C151.398 60.9108 160.184 75.6258 171.824 77.2534C171.824 77.2534 173.957 72.2241 177.281 73.7065C180.609 75.1889 180.609 85.1966 175.335 86.5074C174.643 93.4306 175.652 100.525 178.253 106.981C178.753 108.213 179.33 109.451 180.063 110.559Z" fill="#F68164"/>
<path d="M168.578 81.4463C171.179 81.4463 173.285 83.553 173.285 86.1537C173.285 88.7545 171.179 90.8611 168.578 90.8611C165.977 90.8611 163.871 88.7545 163.871 86.1537C163.871 83.553 165.977 81.4463 168.578 81.4463Z" fill="#F36254"/>
<path d="M170.159 102.45L163.928 108.671L164.298 103.61C166.211 103.438 168.183 103.038 170.159 102.45Z" fill="#252936"/>
<path d="M163.928 108.671L163.595 113.279C163.595 113.279 156.844 116.307 153.749 123.459C153.078 121.285 153.15 118.908 153.635 116.676C154.181 114.179 155.21 111.823 156.251 109.498C157.14 107.506 158.045 105.503 158.665 103.417C160.448 103.74 162.347 103.792 164.298 103.609L163.928 108.671Z" fill="#252936"/>
<path d="M152.772 79.4906L155.45 90.7727C155.45 90.7727 150.784 92.1823 150.171 91.0588C149.556 89.9405 152.772 79.4906 152.772 79.4906Z" fill="#F36254"/>
<path d="M218.398 123.638C217.892 116.103 214.245 109.071 210.039 102.762C207.174 98.4693 204.006 94.3554 201.187 90.0402C203.192 92.0241 205.229 93.9783 207.184 96.0064C211.314 100.291 215.225 105.076 217.213 110.766C218.652 114.881 219.007 119.33 218.398 123.638ZM161.292 73.0152C159.829 71.9494 158.496 70.7135 157.235 69.4183C155.999 68.1502 154.785 66.8363 153.77 65.3814C153.006 64.2855 152.362 63.0928 151.976 61.8179C153.771 64.5351 159.611 72.6427 167.322 75.9587C165.153 75.4027 163.107 74.3379 161.292 73.0152ZM218.422 113.016C217.027 107.312 213.641 102.376 209.785 98.0428C206.663 94.5354 203.193 91.363 199.902 88.0184C198.871 86.3399 197.907 84.6223 197.047 82.845C193.821 76.1922 192.131 68.8742 188.813 62.2735C185.488 55.6671 179.917 49.5194 172.615 48.3803C161.889 46.7054 151.652 56.2137 140.984 54.2112C140.563 59.6363 142.8 65.2124 146.857 68.843L147.257 68.9679C148.743 64.1304 150.722 61.6686 151.256 61.0652C151.898 64.2595 154.116 66.8867 156.311 69.2071C158.877 71.9208 161.767 74.443 165.275 75.8432C166.789 76.4476 168.399 76.8211 170.025 76.8877C170.617 77.0401 171.216 77.1686 171.824 77.2534C171.824 77.2534 173.957 72.224 177.281 73.7064C180.609 75.1889 180.609 85.1966 175.335 86.5074C174.643 93.4306 175.652 100.525 178.253 106.981C178.753 108.213 179.33 109.451 180.063 110.559C180.516 111.251 181.031 111.89 181.629 112.452V112.457C181.842 112.655 182.066 112.847 182.305 113.03C186.877 116.52 193.613 114.429 198.997 116.453C203.98 118.325 207.069 123.568 207.881 128.832C208.697 134.096 207.636 139.448 206.586 144.671L206.679 144.701C206.783 144.39 206.882 144.072 206.981 143.76C213.969 141.287 218.11 133.71 218.441 126.256C219.446 121.918 219.48 117.346 218.422 113.016Z" fill="#252936"/>
<path d="M150.809 79.5889C150.809 81.2128 149.894 82.5293 148.766 82.5293C147.638 82.5293 146.724 81.2128 146.724 79.5889C146.724 77.965 147.638 76.6485 148.766 76.6485C149.894 76.6485 150.809 77.965 150.809 79.5889Z" fill="#252936"/>
<path d="M161.394 79.167C161.394 80.7909 160.48 82.1074 159.352 82.1074C158.224 82.1074 157.31 80.7909 157.31 79.167C157.31 77.5436 158.224 76.2271 159.352 76.2271C160.48 76.2271 161.394 77.5436 161.394 79.167Z" fill="#252936"/>
<path d="M150.072 72.8003C149.06 72.7468 148.038 72.8461 147.049 73.0667C146.517 73.1847 146.156 73.8297 146.323 74.3462C146.504 74.9044 147.033 75.1998 147.602 75.0729C147.847 75.0183 148.094 74.9777 148.343 74.9408C148.916 74.8737 149.494 74.8508 150.072 74.8809C150.616 74.9101 151.136 74.3821 151.112 73.8406C151.085 73.2529 150.655 72.8321 150.072 72.8003Z" fill="#252936"/>
<path d="M162.518 73.7324C162.362 73.4906 162.161 73.3616 161.896 73.2544C160.723 72.7806 159.406 72.5959 158.147 72.7233C157.865 72.7519 157.62 72.8206 157.412 73.0281C157.231 73.2086 157.096 73.5046 157.107 73.7636C157.13 74.2801 157.567 74.8627 158.147 74.8039C158.668 74.7514 159.19 74.7608 159.709 74.818C160.27 74.9054 160.816 75.0484 161.343 75.2606C161.576 75.3548 161.937 75.2773 162.144 75.1556C162.36 75.0297 162.566 74.7821 162.622 74.534C162.683 74.2677 162.67 73.9691 162.518 73.7324Z" fill="#252936"/>
<path d="M163.306 94.5906C164.06 96.4543 163.351 98.499 161.723 99.1585C160.094 99.8176 158.163 98.8407 157.408 96.9775C156.654 95.1138 157.363 93.0691 158.992 92.4101C160.62 91.7511 162.552 92.7274 163.306 94.5906Z" fill="#E85B41"/>
<path d="M163.871 92.0001C163.871 92.0001 165.427 96.4474 160.943 97.9293C157.291 99.1366 155.757 96.7382 155.346 95.9169L163.871 92.0001Z" fill="white"/>
<path d="M206.586 144.671L206.679 144.701C205.233 149.19 203.59 153.695 201.93 157.944V157.95C196.802 171.078 191.517 181.788 191.356 182.106C186.289 175.109 176.854 170.465 173.791 169.086C173.161 168.805 172.802 168.66 172.802 168.66L170.872 174.444C171.033 174.595 171.2 174.745 171.356 174.891L153.863 177.222V170.012C153.863 170.012 153.431 169.076 152.792 167.588C151.918 165.56 150.654 162.501 149.598 159.422C148.438 156.041 147.528 152.634 147.637 150.538C147.928 145.138 159.756 124.317 159.756 124.317C159.772 127.318 160.438 129.742 160.438 129.742C160.49 129.42 160.609 129.076 160.787 128.727C160.838 128.952 162.513 135.859 165.639 141.092L172.298 129.742C172.573 130.455 172.843 131.251 173.088 132.125C173.088 132.125 180.474 120.182 181.629 112.457C181.842 112.655 182.066 112.847 182.305 113.03C186.877 116.52 193.613 114.429 198.997 116.452C203.98 118.324 207.069 123.568 207.881 128.832C208.697 134.096 207.636 139.448 206.586 144.671Z" fill="#55C6C2"/>
<path d="M201.93 157.95L205.046 185.336H191.012L192.177 183.313C191.922 182.902 191.647 182.501 191.355 182.106C191.517 181.788 196.801 171.078 201.93 157.95Z" fill="#55C6C2"/>
<path d="M191.356 182.106C191.647 182.501 191.923 182.902 192.177 183.313L191.012 185.336L185.14 195.557C185.14 195.557 183.075 185.846 171.356 174.891C171.2 174.746 171.033 174.595 170.872 174.444L172.802 168.66C172.802 168.66 173.161 168.805 173.791 169.086C176.854 170.465 186.289 175.109 191.356 182.106Z" fill="#49C2B7"/>
<path d="M185.14 195.557C185.14 195.557 171.704 195.796 134.144 193.627C134.144 193.627 125.369 199.703 121.806 199.317C118.238 198.932 111.2 192.327 109.463 189.581C107.731 186.834 112.261 182.735 112.261 182.735C112.261 182.735 112.308 180.665 115.153 179.459C116.423 178.922 119.902 178.996 123.377 179.24C127.705 179.552 132.022 180.134 132.022 180.134L142.472 178.741L153.863 177.222L171.356 174.891C183.075 185.846 185.14 195.557 185.14 195.557Z" fill="#F68164"/>
<path d="M181.629 112.452V112.458C180.474 120.182 173.088 132.125 173.088 132.125C172.844 131.251 172.573 130.455 172.298 129.742C170.513 125.124 168.318 123.74 168.318 123.74L180.063 110.559C180.516 111.251 181.031 111.89 181.629 112.452Z" fill="white"/>
<path d="M172.298 129.742L165.64 141.092C162.513 135.859 160.839 128.952 160.787 128.728C160.787 128.723 160.787 128.723 160.787 128.723C161.832 126.611 164.703 124.244 164.703 124.244L165.318 131.839L168.318 123.74C168.318 123.74 170.513 125.123 172.298 129.742Z" fill="#CFEEE3"/>
<path d="M165.312 166.548V158.741H158.789V166.548H165.312ZM159.736 157.143H167.85L168.173 173.767H156.173L155.928 157.143H159.736Z" fill="white"/>
<path d="M165.312 158.741V166.548H158.789V158.741H165.312Z" fill="#55C6C2"/>
<path d="M163.47 114.99L164.703 124.244C164.703 124.244 161.832 126.611 160.787 128.723C160.787 128.723 160.787 128.723 160.787 128.728C160.609 129.076 160.49 129.42 160.438 129.742C160.438 129.742 159.772 127.318 159.756 124.317C159.741 121.129 160.453 117.28 163.47 114.99Z" fill="white"/>
<path d="M161.827 154.61L163.829 157.143H159.735L161.827 154.61Z" fill="#AAACAB"/>
<path d="M153.748 123.459C156.844 116.307 163.595 113.279 163.595 113.279L163.47 114.99C160.453 117.28 159.741 121.129 159.756 124.317C159.756 124.317 147.928 145.138 147.637 150.538C147.527 152.634 148.438 156.041 149.598 159.422L148.891 159.599L143.813 157.134L143.975 156.806C143.975 156.806 150.435 133.908 153.036 125.378C153.239 124.707 153.478 124.067 153.748 123.459Z" fill="#55C6C2"/>
<path d="M153.863 170.012V177.222L142.472 178.741L107.803 178.668C101.935 181.192 98.902 181.326 96.6341 180.198C95.7082 180.26 92.2357 180.644 91.3098 180.701C91.2214 181.7 90.9145 182.589 90.0875 182.589C88.2097 182.589 86.1135 178.397 86.1135 178.397C86.1135 178.397 85.5361 182.589 83.6532 181.581C81.7754 180.566 82.28 174.828 82.28 174.828C82.28 174.828 78.0148 179.011 77.4374 177.435C76.86 175.854 79.6792 168.347 86.6909 167.697C93.7025 167.047 109.536 169.866 109.536 169.866L140.938 164.613L152.792 167.588C153.432 169.076 153.863 170.012 153.863 170.012Z" fill="#F68164"/>
<path d="M152.792 167.588L140.938 164.613C140.209 158.782 142.144 156.322 142.144 156.322L143.814 157.134L149.598 159.422C150.654 162.502 151.918 165.56 152.792 167.588Z" fill="#49C2B7"/>
<path d="M128.93 167.528C129.673 168.037 129.876 169.057 129.424 169.837C125.757 169.364 124.883 167.694 124.883 167.694C125.185 167.184 125.783 166.581 126.371 166.55C127.089 166.519 128.025 166.909 128.93 167.528Z" fill="#F2564A"/>
<path d="M129.424 169.837L127.208 173.66C124.29 173.239 122.73 171.309 122.73 171.309L124.883 167.694C124.883 167.694 125.757 169.364 129.424 169.837Z" fill="#F5776B"/>
<path d="M127.208 173.66L123.754 179.621L117.856 179.497L122.73 171.309C122.73 171.309 124.29 173.239 127.208 173.66Z" fill="#55C6C2"/>
<path d="M184.039 132.606C182.612 137.102 181.185 141.597 179.756 146.092C178.336 150.567 176.915 155.042 175.494 159.517C174.688 162.053 173.883 164.589 173.078 167.126C172.976 167.446 173.478 167.582 173.579 167.264C175.007 162.769 176.434 158.273 177.861 153.778C179.282 149.303 180.703 144.829 182.125 140.354C182.93 137.817 183.735 135.281 184.541 132.745C184.643 132.425 184.14 132.288 184.039 132.606Z" fill="#252936"/>
<path d="M201.672 158.689C198.682 164.637 195.934 170.705 193.438 176.876C192.734 178.617 192.051 180.365 191.387 182.122C191.269 182.435 191.771 182.571 191.889 182.259C194.227 176.075 196.814 169.986 199.648 164.012C200.453 162.316 201.277 160.629 202.121 158.952C202.271 158.654 201.822 158.39 201.672 158.689Z" fill="#252936"/>
<path d="M159.048 124.92C156.574 129.506 154.041 134.065 151.64 138.689C149.473 142.861 147.56 147.337 147.576 152.12C147.586 154.607 148.127 157.095 149.361 159.268C149.526 159.559 149.976 159.297 149.81 159.006C147.565 155.052 147.767 150.234 149.061 146.005C149.759 143.724 150.757 141.55 151.842 139.431C152.975 137.216 154.182 135.038 155.362 132.849C156.74 130.294 158.119 127.738 159.497 125.183C159.656 124.888 159.207 124.626 159.048 124.92Z" fill="#252936"/>
<path d="M172.272 130.35C169.462 136.707 166.651 143.063 163.841 149.421C163.156 150.969 162.472 152.518 161.787 154.067C160.735 147.731 160.285 141.298 160.459 134.878C160.511 132.973 160.618 131.068 160.778 129.169C160.806 128.835 160.286 128.837 160.258 129.169C159.691 135.924 159.803 142.733 160.603 149.465C160.821 151.307 161.092 153.143 161.41 154.971C161.408 155.018 161.42 155.062 161.44 155.102C161.468 155.187 161.527 155.232 161.598 155.246C161.703 155.287 161.822 155.267 161.882 155.132C161.883 155.128 161.885 155.124 161.887 155.12C161.903 155.094 161.917 155.066 161.924 155.036C164.72 148.711 167.516 142.386 170.312 136.061C171.115 134.245 171.918 132.428 172.721 130.612C172.855 130.309 172.407 130.044 172.272 130.35Z" fill="#252936"/>
<path d="M153.496 177.346C149.808 177.707 146.121 178.069 142.435 178.43C142.104 178.463 142.101 178.983 142.435 178.95C146.121 178.589 149.808 178.227 153.496 177.866C153.826 177.834 153.83 177.313 153.496 177.346Z" fill="#252936"/>
<path d="M102.061 178.311C98.9596 179.294 95.756 179.946 92.515 180.234C92.1431 180.267 91.7711 180.296 91.3987 180.32C91.0866 180.34 90.7626 180.376 90.4526 180.312C90.2159 180.263 89.9511 180.15 89.9673 179.864C89.987 179.508 90.439 179.177 90.6726 178.955C91.7394 177.944 92.8838 177.017 94.0942 176.184C95.4632 175.241 96.9134 174.421 98.4234 173.727C98.7271 173.588 98.4634 173.139 98.1607 173.278C95.2234 174.629 92.5155 176.466 90.1816 178.704C89.7446 179.124 89.172 179.746 89.5917 180.378C89.8924 180.831 90.5348 180.882 91.0263 180.862C92.7854 180.788 94.5498 180.562 96.2835 180.26C98.286 179.913 100.262 179.427 102.199 178.813C102.517 178.713 102.382 178.21 102.061 178.311Z" fill="#252936"/>
<path d="M86.3776 178.332C85.6937 176.035 85.6843 173.59 86.3527 171.289C86.4463 170.967 85.9444 170.829 85.8513 171.151C85.1579 173.538 85.1662 176.088 85.8762 178.47C85.9714 178.79 86.4734 178.654 86.3776 178.332Z" fill="#252936"/>
<path d="M84.42 170.448C84.2873 170.368 84.1495 170.43 84.0642 170.541C83.0957 171.806 82.4351 173.295 82.1438 174.861C82.0829 175.188 82.5844 175.328 82.6452 174.999C82.9297 173.47 83.568 172.039 84.5136 170.804C84.5994 170.691 84.5302 170.513 84.42 170.448Z" fill="#252936"/>
<path d="M164.492 124.228C162.989 125.715 161.579 127.293 160.268 128.952C160.062 129.211 160.428 129.582 160.636 129.319C161.946 127.661 163.357 126.083 164.86 124.595C165.098 124.36 164.73 123.992 164.492 124.228Z" fill="#252936"/>
<path d="M173.168 131.589C172.286 128.62 170.753 125.877 168.69 123.567C168.466 123.316 168.099 123.685 168.322 123.934C170.325 126.177 171.811 128.846 172.667 131.728C172.762 132.048 173.264 131.912 173.168 131.589Z" fill="#252936"/>
<path d="M165.732 132.272C165.717 131.938 165.197 131.936 165.212 132.272C165.31 134.578 165.408 136.883 165.508 139.189C165.522 139.522 166.042 139.524 166.028 139.189C165.928 136.883 165.83 134.578 165.732 132.272Z" fill="#252936"/>
<path d="M167.614 133.599C167.47 133.303 167.083 133.141 166.774 133.261C166.682 133.298 166.599 133.354 166.525 133.422C166.516 133.429 166.505 133.432 166.497 133.441C166.482 133.458 166.475 133.48 166.462 133.498C166.437 133.529 166.406 133.553 166.387 133.588C166.378 133.607 166.378 133.628 166.37 133.648C166.362 133.665 166.36 133.683 166.354 133.7C166.333 133.764 166.318 133.828 166.317 133.895C166.317 133.903 166.312 133.909 166.312 133.916C166.312 133.935 166.321 133.951 166.322 133.97C166.326 134.013 166.321 134.056 166.333 134.098C166.337 134.114 166.349 134.127 166.355 134.143C166.366 134.174 166.383 134.201 166.397 134.23C166.421 134.276 166.445 134.32 166.479 134.36C166.486 134.369 166.489 134.381 166.497 134.389C166.515 134.408 166.54 134.419 166.56 134.436C166.587 134.458 166.606 134.487 166.636 134.505C166.647 134.513 166.663 134.513 166.674 134.519C166.708 134.536 166.744 134.544 166.78 134.556C166.823 134.571 166.863 134.59 166.908 134.595C167.073 134.619 167.244 134.589 167.379 134.492C167.516 134.394 167.618 134.258 167.663 134.094C167.711 133.927 167.69 133.754 167.614 133.599Z" fill="#252936"/>
<path d="M34.9512 179.64L33.4063 192.374L60.0121 190.735V196.041L21.2608 200.378L10.7539 192.374L22.7384 164.009L27.0451 153.815L37.7444 156.613L36.4024 167.697L34.9512 179.64Z" fill="#7E8182"/>
<path d="M49.1668 83.3968L67.1485 177.097H59.4346L41.3594 83.3968H49.1668Z" fill="#7E8182"/>
<path d="M60.0121 190.735L33.4062 192.374L34.9512 179.64L60.0121 190.735Z" fill="#AAACAB"/>
<path d="M41.3595 83.3968L59.4348 177.097L36.4024 167.697L37.7444 156.613L27.0451 153.815L22.7384 164.009L20.8293 163.198L0.00244141 83.3968H41.3595Z" fill="#AAACAB"/>
<path d="M55.6393 156.276C54.6422 150.41 53.6185 144.548 52.5689 138.691C51.514 132.804 50.4326 126.923 49.3252 121.046C48.223 115.199 47.0943 109.355 45.9401 103.518C44.7859 97.6803 43.6051 91.8484 42.3989 86.0211C42.248 85.2929 42.0967 84.5647 41.9453 83.8365C41.8766 83.5088 41.3752 83.6472 41.4434 83.9743C42.6564 89.8005 43.8433 95.6314 45.0043 101.468C46.1653 107.304 47.3003 113.145 48.4087 118.991C49.5234 124.867 50.611 130.747 51.6727 136.633C52.7291 142.489 53.759 148.35 54.7629 154.215C55.7668 160.08 56.7441 165.95 57.6955 171.824C57.8146 172.558 57.9332 173.292 58.0513 174.027C58.1043 174.356 58.6058 174.217 58.5527 173.889C57.6076 168.014 56.637 162.143 55.6393 156.276Z" fill="#252936"/>
<path d="M34.5322 156.391C32.9498 162.031 31.3039 167.654 29.5932 173.257C27.8889 178.84 26.121 184.404 24.2897 189.946C23.2539 193.081 22.1973 196.21 21.1215 199.331C21.0119 199.648 21.5144 199.785 21.6227 199.469C23.532 193.931 25.3786 188.37 27.1609 182.79C28.9368 177.23 30.649 171.649 32.2974 166.049C33.23 162.882 34.1417 159.708 35.034 156.529C35.124 156.206 34.6224 156.068 34.5322 156.391Z" fill="#252936"/>
</svg>
